<?xml version="1.0" standalone="no"?>
<svg xmlns:xlink="http://www.w3.org/1999/xlink" xmlns="http://www.w3.org/2000/svg" fill="white" width="128" height="128" viewBox="0 0 24 24" id="playlist-2" data-name="Flat Color" class="icon flat-color"><path id="secondary" d="M21,20H14a1,1,0,0,1,0-2h7a1,1,0,0,1,0,2Zm0-4H14a1,1,0,0,1,0-2h7a1,1,0,0,1,0,2Zm0-4H14a1,1,0,0,1,0-2h7a1,1,0,0,1,0,2Z" style="fill: white;"/><path id="primary" d="M10,2A1,1,0,0,0,9,3V13.76a4.5,4.5,0,1,0,2,3.74V3A1,1,0,0,0,10,2Z" style="fill: white;"/></svg>